# xmcd
#
# Track frame offsets:
#	150
#	20593
#	39961
#	59829
#	74596
#	85861
#	101829
#	118424
#	136065
#	152140
#	169136
#	185865
#	200230
#	212731
#	226478
#	243503
#	254533
#	268455
#	285113
#	300508
#
# Disc length: 4235 seconds
#
# Revision: 2
# Processed by: cddbd v1.5.2PL0 Copyright (c) Steve Scherf et al.
# Submitted via: EasyCDDAExtractor 2010.6.0.0
#
DISCID=39108914
DTITLE=Various Artist - Western Mail Country Hits 2008
DYEAR=2008
DGENRE=Country
TTITLE0=Texas Lightning - Over The Mountains
TTITLE1=Waggershausen, Stefan - Huckleberry Finn
TTITLE2=Logan, Johny - On The Other Side Of Midnight
TTITLE3=Dagmar - Mein grosser Bruder und ich
TTITLE4=Smokestack Lightnin´ - Unknown Stuntman
TTITLE5=Truck Stop - Ich bin Dein Mann
TTITLE6=Grant, Katie - Our Song Again
TTITLE7=Westend - 7 Tage Highway
TTITLE8=Norman, Chris - Right Time, Wrong Place
TTITLE9=Lukarski, Astrid - Du Bist Mein Held
TTITLE10=Silver, Stan - Singing A Country Song
TTITLE11=Larry Schuba and western Union - Sag einfach Ja
TTITLE12=Jamestown Ferry - Did I Tune My Guitar For This
TTITLE13=Tom Astor - Ich geh` gern vergessenen Strassen
TTITLE14=Fisher, Gitty - Lonesome To The Bone
TTITLE15=Twang, The - You`re My Heart, You´re My Soul
TTITLE16=Cagey Strings - 7 Tage in der Woche
TTITLE17=Mountaineers, The - I Can´t Remember Your Name
TTITLE18=Lammers Meyer, Herrmann - The Radio Song
TTITLE19=German New Faces - Thank You Fans, Thank You Bands
EXTD=
EXTT0=
EXTT1=
EXTT2=
EXTT3=
EXTT4=
EXTT5=
EXTT6=
EXTT7=
EXTT8=
EXTT9=
EXTT10=
EXTT11=
EXTT12=
EXTT13=
EXTT14=
EXTT15=
EXTT16=
EXTT17=
EXTT18=
EXTT19=
PLAYORDER=
